PathFileType	4	(X/Y/Z)	c:/Users/goper/Files/vsCode/490R/osim_files/C17/C17_Fast_02.trc
DataRate	CameraRate	NumFrames	NumMarkers	Units                	OrigDataRate	OrigDataStartFrame	OrigNumFrames
250.00	250.00	9	36	mm	250.0	903	2406
                Frame#	Time	LPSIS			LASIS			LTH1			LTH2			LTH3			LTH4			LLFE			LMFE			LSH1			LSH2			LSH3			LSH4			LLMAL			LMMAL			LCAL			LMTP5			LTOE			LMTP1			RPSIS			RASIS			RTH1			RTH2			RTH3			RTH4			RLFE			RMFE			RSH1			RSH2			RSH3			RSH4			RLMAL			RMMAL			RCAL			RMTP1			RTOE			RMTP5		
		X1	Y1	Z1	X2	Y2	Z2	X3	Y3	Z3	X4	Y4	Z4	X5	Y5	Z5	X6	Y6	Z6	X7	Y7	Z7	X8	Y8	Z8	X9	Y9	Z9	X10	Y10	Z10	X11	Y11	Z11	X12	Y12	Z12	X13	Y13	Z13	X14	Y14	Z14	X15	Y15	Z15	X16	Y16	Z16	X17	Y17	Z17	X18	Y18	Z18	X19	Y19	Z19	X20	Y20	Z20	X21	Y21	Z21	X22	Y22	Z22	X23	Y23	Z23	X24	Y24	Z24	X25	Y25	Z25	X26	Y26	Z26	X27	Y27	Z27	X28	Y28	Z28	X29	Y29	Z29	X30	Y30	Z30	X31	Y31	Z31	X32	Y32	Z32	X33	Y33	Z33	X34	Y34	Z34	X35	Y35	Z35	X36	Y36	Z36

903	3.60800	481.43643	1062.69666	290.71701	281.96515	1017.69116	381.56970	279.45572	685.57269	407.37436	257.94867	647.33496	399.12964	224.94376	712.16364	410.76410	209.60803	670.83673	401.44803	200.63077	498.39606	361.97571	212.87665	503.20316	237.99901	270.32574	272.92380	361.83246	271.68903	230.15591	357.61768	209.95898	266.40390	356.42276	220.33965	223.86024	351.79062	275.66089	92.61998	337.87451	263.33398	99.39474	248.94150	352.73602	54.08429	297.27432	160.79944	42.93784	364.25522	102.48693	61.63354	297.21555	120.99789	41.50149	248.84949	478.54767	1053.71484	216.40675	302.53168	1010.79407	113.40180	364.65198	715.95447	59.52354	360.95212	669.42236	65.59689	302.82675	716.11151	68.21188	306.46490	668.84375	69.39652	358.31320	455.62241	75.70767	342.69086	465.40854	200.70398	557.21014	394.35608	86.69450	589.97449	364.01712	98.86799	517.93384	345.51813	85.79885	555.86829	319.45755	97.62566	717.68195	253.89207	135.79836	680.11578	230.11119	219.00307	773.08032	290.00409	194.40005	682.84943	74.09248	207.00684	658.29016	75.69865	160.65080	719.70563	112.60795	101.87526
904	3.61200	474.48383	1064.58508	291.23987	274.15747	1019.62653	381.90424	275.83090	686.78326	407.83011	254.43478	648.11804	399.69946	220.89090	712.75830	411.09244	205.79033	671.02124	402.07632	198.99481	498.33514	362.31079	211.24678	503.20956	238.34482	269.57565	273.07443	362.06619	270.93695	230.24501	357.81912	208.93643	266.12704	356.84756	219.72678	223.84167	351.97711	275.60806	92.82964	337.94653	263.28348	99.53267	248.99423	352.69455	54.33996	297.21692	160.75264	42.96325	364.31354	102.44717	61.56663	297.24164	121.00558	41.54913	248.84581	471.51077	1055.60742	216.90526	295.88733	1013.07104	113.50108	354.57193	717.74176	59.46533	350.44791	671.24585	65.49616	292.74896	718.49640	68.25967	296.70432	671.20233	69.24441	345.22430	457.38336	75.47059	329.89252	467.42639	200.54843	543.55402	394.07739	86.77843	575.84772	363.22797	98.89149	503.52872	345.61951	85.88155	541.13794	319.00995	97.72437	702.78992	251.85420	136.30620	664.59625	228.47115	218.89128	759.11774	285.44916	195.47385	662.18225	72.57916	205.07925	637.16083	75.90024	158.55658	698.38824	110.99741	100.86347
905	3.61600	467.53082	1066.46704	291.70587	267.82913	1020.65704	382.12827	271.85257	687.78821	408.19470	250.98381	648.95490	400.17636	216.84583	713.36395	411.29059	202.01045	671.34717	402.43686	197.33951	498.30334	362.65341	209.48718	503.28992	238.66396	268.73608	273.25351	362.24860	270.28705	230.40897	357.95392	208.17833	266.06265	357.13770	219.29076	224.00710	352.00027	276.12939	93.50449	338.49518	263.23416	99.68327	249.06190	352.58157	54.55947	297.16003	160.73489	42.98312	364.34729	102.39793	61.51760	297.24664	120.97768	41.57928	248.81331	464.68457	1057.52271	217.44951	289.20697	1014.16895	113.92233	344.06134	719.59039	59.43305	339.47552	673.16589	65.34100	282.78937	720.99365	68.35790	285.34586	673.67151	69.24680	331.44217	459.24426	75.34575	317.11154	469.51373	200.42834	529.94653	393.48575	86.75321	561.63452	362.18964	98.91270	488.95871	345.21201	85.93509	526.23529	318.31647	97.83291	688.55237	250.11322	136.46492	647.94720	226.02229	219.32474	745.03900	280.60825	196.50362	641.13483	71.49349	202.94711	616.28564	75.66155	156.20198	678.67731	109.67679	99.44277
906	3.62000	460.62177	1068.38855	292.22607	262.53070	1021.23035	382.17056	268.08447	688.80768	408.59592	247.60788	649.87250	400.57642	212.81329	713.89911	411.51843	198.35628	671.68140	402.73029	195.85727	498.40250	362.99390	207.80449	503.45145	238.99330	268.06537	273.44144	362.43835	269.77292	230.61755	358.10745	207.69926	266.17941	357.26743	218.74257	224.02716	352.21802	276.01270	93.64439	338.45667	263.18481	99.86972	249.10414	352.57251	54.90891	297.13147	160.73630	42.97762	364.42310	102.36570	61.44960	297.27750	121.03112	41.64097	248.79961	457.90976	1059.49597	217.97681	282.66415	1015.22699	114.56718	334.19138	721.57434	59.34167	329.08765	675.09045	65.22736	272.82919	723.58405	68.26939	274.98956	676.20953	69.21849	319.00232	461.22202	75.19598	304.40680	471.71121	200.18744	516.14178	392.60519	86.61511	547.42975	360.91901	98.92689	474.70538	345.37329	85.88779	511.37500	317.55945	97.89193	672.44208	246.93468	136.83771	631.72198	223.73753	219.42148	730.61578	275.40536	197.56194	618.98541	69.59823	200.82324	594.81287	75.42573	154.19379	659.09198	108.48004	98.40858
907	3.62400	453.61386	1070.26868	292.80975	255.47217	1022.83124	382.30472	264.38809	689.88776	408.98486	244.30869	650.68024	401.00961	208.99303	714.53937	411.85474	194.84622	672.05945	403.08698	194.42606	498.46893	363.40292	206.05023	503.59406	239.27730	267.57593	273.77588	362.68423	269.31955	230.87628	358.22357	207.01582	266.19955	357.54181	218.23505	224.10147	352.42447	275.78345	93.31571	338.15378	263.13834	100.04796	249.18054	352.47772	55.18791	297.11865	160.69756	42.98931	364.48590	102.31492	61.38698	297.31616	120.97168	41.68618	248.83255	451.06729	1061.45496	218.62979	276.08063	1017.51978	114.83804	324.20792	723.60889	59.28220	318.75720	677.11725	65.09266	263.06641	726.16919	68.35199	264.73477	678.76270	69.13964	306.03253	463.22464	75.03085	291.17722	473.77811	199.81778	502.27734	391.52078	86.39822	533.10522	359.49741	98.86991	459.77734	344.76859	86.39004	496.43896	316.70651	97.96271	656.48993	243.70129	137.43967	615.21631	221.28912	219.19339	715.95673	269.88260	198.49278	597.11151	68.05824	198.86009	573.29108	75.43202	152.59348	638.95612	106.78733	97.11671
908	3.62800	446.61380	1072.15601	293.40329	248.31966	1024.46826	382.41718	260.62448	690.94202	409.26016	241.07141	651.51306	402.08258	205.00235	715.09302	412.04150	191.27736	672.39154	403.34427	192.82632	498.50980	363.73651	204.25031	503.70615	239.61896	266.87656	273.98694	362.81940	268.83139	231.13556	358.33658	206.20461	266.11676	357.98395	217.83765	224.15759	352.62537	275.21033	93.72812	338.08099	263.02075	100.24689	249.22810	352.37601	55.49509	297.07645	160.65645	42.97753	364.53900	102.23982	61.32187	297.35907	120.93683	41.73430	248.84702	444.22159	1063.45410	219.20062	269.50601	1020.02075	115.06024	314.91180	725.72388	59.21975	307.46707	679.33502	65.59391	253.64699	728.76935	68.33843	254.57080	681.42358	68.97572	294.39597	465.28510	74.12717	279.27609	476.31876	199.84218	488.35452	390.36899	86.15826	518.63037	357.87878	98.76414	445.17859	344.17923	86.11858	481.14474	315.63525	98.24460	640.42676	240.31245	137.67451	597.93585	218.41185	219.42006	700.93140	264.09518	199.33105	574.68738	66.53433	197.03191	551.75391	75.43307	150.82922	618.87067	105.16879	95.59200
909	3.63200	439.55066	1073.97986	294.02576	241.34875	1025.89624	382.58804	257.03302	692.01129	409.55475	237.56163	652.30585	401.65521	200.99480	715.45081	412.22479	187.75542	672.31042	404.10950	191.51251	498.61862	364.12222	202.53679	503.88898	239.94106	266.25769	274.13364	362.93314	268.40186	231.36725	358.42758	205.68980	266.13013	358.24960	217.40717	224.25270	352.86310	275.06155	93.86058	338.07727	262.91385	100.47100	249.27412	351.58328	55.03852	296.38455	160.61765	42.96007	364.62167	102.16240	61.24217	297.41498	120.89104	41.72099	248.88771	437.33221	1065.37366	219.91171	262.85898	1022.17004	115.40670	305.18787	727.77264	59.05240	297.96585	681.69379	65.03721	243.99925	731.46307	68.18334	244.45404	684.06134	68.88063	280.30832	467.30286	74.90676	266.71057	478.71576	199.69525	474.42517	389.04785	85.90966	504.06534	356.09143	98.63645	430.37048	343.62888	86.16061	465.75089	314.39600	98.46927	624.37268	236.76140	137.97299	581.48639	215.69771	219.13145	686.01172	258.21735	200.03145	552.30060	65.07629	195.31145	529.83423	75.36488	149.11652	598.33734	103.20532	94.39805
910	3.63600	432.54605	1075.80688	294.67441	234.22488	1027.31128	382.72449	253.21724	693.02557	409.81046	234.14833	653.14520	401.93472	197.05241	715.81238	412.41571	184.77888	672.80847	404.25919	189.98656	498.66214	364.41699	200.90294	504.09604	240.27679	265.76590	274.40103	363.09717	268.00360	231.65186	358.55725	205.15659	266.22894	358.50763	216.93861	224.38594	353.14731	274.88751	94.02811	338.09094	262.77100	100.71394	249.30432	351.48508	55.63895	296.49387	160.57167	42.93700	364.66183	102.07067	61.16315	297.45068	120.84953	41.72084	248.90561	430.52686	1067.41345	220.56804	256.27344	1024.75232	115.65415	295.56854	729.89893	58.93177	287.91470	683.88245	64.85575	234.36139	734.11835	68.17879	234.43271	686.71313	68.76373	267.24338	469.36823	74.82088	254.30077	481.09167	199.54016	460.21582	387.52640	85.96738	489.43195	354.22998	98.51297	415.47342	342.98859	86.23779	450.30383	313.19989	98.61364	608.45935	233.24826	137.88876	563.93994	212.74951	219.06969	670.24121	251.73737	200.61971	530.04742	63.90291	193.86961	507.48438	75.54945	147.09061	577.57013	101.19387	93.29911
911	3.64000	425.59167	1077.64954	295.24762	227.85666	1028.94702	382.59564	249.64110	694.14929	410.08163	232.12312	654.42395	402.26031	193.16631	716.22278	412.59668	181.52379	673.29236	404.50409	188.72269	498.83234	364.71863	199.28915	504.31113	240.64586	265.25827	274.61557	363.20422	267.72171	231.95734	358.63257	204.89116	266.48245	358.56918	216.57616	224.51155	353.36926	274.72626	94.23965	338.01569	262.63446	100.95719	249.32561	351.39438	55.97427	296.42630	160.53888	42.94057	364.71021	102.00155	61.09798	297.48715	120.77991	41.69242	248.90953	423.68298	1069.38586	221.23825	249.69551	1027.13989	115.93102	286.06351	732.06299	58.80024	277.96002	686.02649	64.66550	224.90245	736.73065	68.15781	224.47614	689.35681	68.56316	254.88068	471.40643	74.66096	242.07411	483.57297	199.43056	446.26578	386.06488	85.41665	474.73941	352.27618	98.32520	400.67673	342.59561	86.24047	434.83554	311.94736	98.71275	591.72675	229.06888	138.24635	546.81274	209.72530	218.92265	654.33514	245.14673	201.08662	507.37402	62.68731	192.43533	485.67294	75.32117	145.88161	556.07599	98.72020	92.67621
